#!OML:ASF H:\LiuWeirdWalks\Patient Classification 1\Patient 1\Session 1\male.ASF
:FULLY-SPECIFIED
:DEGREES
718
root -0.0190143 17.9608 -5.76291 1.7303 4.22046 7.1736
lowerback 9.01707 -0.297386 2.40597
upperback 1.72685 0.0769198 6.32192
thorax -3.27251 0.0435351 5.2433
lowerneck -23.8611 1.33351 6.79767
upperneck 25.3631 5.59744 -20.4726
head 13.5107 0.433762 -8.44727
rclavicle -7.95139e-016 -2.22639e-014
rhumerus -27.0131 -28.4235 -22.9967
rradius 32.5269
rwrist -3.33867
rhand -20.5901 -4.64663
rfingers 7.12502
rthumb 5.77009 -34.5481
lclavicle -7.95139e-016 -2.22639e-014
lhumerus -28.6394 29.3305 18.0984
lradius 37.1809
lwrist 2.16629
lhand -17.2256 3.55948
lfingers 7.12502
lthumb 9.01769 33.3467
rfemur -21.9744 -1.56399 9.34953
rtibia 37.9071
rfoot -9.96667 -18.303
rtoes -1.71698
lfemur 0.0814745 -1.65327 -19.5785
ltibia 40.435
lfoot 6.21146 -2.87561
ltoes -22.5693
719
root -0.0392158 17.9684 -5.68179 1.78449 4.26392 7.33113
lowerback 8.94679 -0.325245 2.54121
upperback 1.70452 0.0535127 6.41638
thorax -3.25503 0.0312037 5.26902
lowerneck -23.9191 1.32582 6.75277
upperneck 25.4293 5.67336 -20.6594
head 13.5773 0.436008 -8.51957
rclavicle -1.23246e-014 -3.49861e-014
rhumerus -26.9477 -28.4894 -23.1326
rradius 32.4937
rwrist -3.27485
rhand -20.6162 -4.59908
rfingers 7.12502
rthumb 5.74494 -34.5012
lclavicle -1.23246e-014 -3.49861e-014
lhumerus -28.7054 29.246 18.1221
lradius 37.2591
lwrist 2.19268
lhand -17.1926 3.55793
lfingers 7.12502
lthumb 9.04947 33.3438
rfemur -21.7574 -1.46731 9.27531
rtibia 38.008
rfoot -10.2181 -18.5296
rtoes -1.83282
lfemur -0.0368052 -1.62969 -19.6252
ltibia 40.7289
lfoot 7.04762 -3.23548
ltoes -21.8686
720
root -0.0588562 17.9763 -5.60194 1.84685 4.30165 7.5083
lowerback 8.88227 -0.346037 2.65043
upperback 1.67861 0.0370508 6.49971
thorax -3.24502 0.0225762 5.29704
lowerneck -23.9792 1.30084 6.66805
upperneck 25.501 5.7215 -20.7851
head 13.6369 0.428756 -8.5624
rclavicle -7.95139e-016 2.22639e-014
rhumerus -26.9087 -28.5373 -23.2571
rradius 32.4568
rwrist -3.25788
rhand -20.6355 -4.57255
rfingers 7.12502
rthumb 5.7263 -34.4752
lclavicle -7.95139e-016 2.22639e-014
lhumerus -28.7388 29.1678 18.1689
lradius 37.3173
lwrist 2.22905
lhand -17.165 3.58068
lfingers 7.12502
lthumb 9.07612 33.3654
rfemur -21.5459 -1.39866 9.17702
rtibia 38.0898
rfoot -10.4506 -18.7258
rtoes -1.97148
lfemur -0.155635 -1.57215 -19.6884
ltibia 40.9996
lfoot 7.87079 -3.57541
ltoes -21.266
721
root -0.0782586 17.9843 -5.52346 1.90844 4.32921 7.68695
lowerback 8.83827 -0.361919 2.74691
upperback 1.64798 0.0273527 6.57811
thorax -3.25188 0.017495 5.32676
lowerneck -24.0481 1.26724 6.56877
upperneck 25.5763 5.75467 -20.8831
head 13.6952 0.416019 -8.59345
rclavicle -5.1684e-015 7.95139e-014
rhumerus -26.8995 -28.534 -23.3726
rradius 32.4312
rwrist -3.29913
rhand -20.6318 -4.56082
rfingers 7.12502
rthumb 5.72981 -34.4634
lclavicle -5.1684e-015 7.95139e-014
lhumerus -28.7649 29.0597 18.2283
lradius 37.372
lwrist 2.28025
lhand -17.1203 3.58108
lfingers 7.12502
lthumb 9.11922 33.3639
rfemur -21.3334 -1.33617 9.07675
rtibia 38.1554
rfoot -10.6738 -18.9055
rtoes -2.10606
lfemur -0.267509 -1.47333 -19.7419
ltibia 41.2395
lfoot 8.68683 -3.89834
ltoes -20.6943
722
root -0.0975986 17.9923 -5.44631 1.97188 4.34986 7.87366
lowerback 8.81163 -0.371557 2.82801
upperback 1.61096 0.0256889 6.64436
thorax -3.27568 0.0165778 5.35178
lowerneck -24.1215 1.23617 6.49967
upperneck 25.6292 5.77843 -20.9902
head 13.7445 0.401485 -8.63397
rclavicle 3.97569e-015 -4.77083e-014
rhumerus -26.9329 -28.4971 -23.472
rradius 32.4116
rwrist -3.34967
rhand -20.6011 -4.57055
rfingers 7.12502
rthumb 5.75952 -34.4723
lclavicle 3.97569e-015 -4.77083e-014
lhumerus -28.7601 28.9522 18.2931
lradius 37.3955
lwrist 2.30843
lhand -17.0615 3.48522
lfingers 7.12502
lthumb 9.17597 33.2656
rfemur -21.1214 -1.2871 8.96674
rtibia 38.2091
rfoot -10.8928 -19.063
rtoes -2.23343
lfemur -0.372009 -1.345 -19.7951
ltibia 41.4442
lfoot 9.49389 -4.20933
ltoes -20.2143
723
root -0.116893 18 -5.37058 2.03484 4.35876 8.06361
lowerback 8.80372 -0.381088 2.89369
upperback 1.56978 0.0240365 6.70184
thorax -3.31426 0.0158193 5.37667
lowerneck -24.1626 1.21377 6.45638
upperneck 25.6506 5.80121 -21.1027
head 13.7741 0.390859 -8.6774
rclavicle 2.22639e-014 1.27222e-013
rhumerus -26.9759 -28.4267 -23.5735
rradius 32.3863
rwrist -3.37791
rhand -20.5531 -4.59462
rfingers 7.12502
rthumb 5.80581 -34.4951
lclavicle 2.22639e-014 1.27222e-013
lhumerus -28.7652 28.828 18.3426
lradius 37.4138
lwrist 2.33235
lhand -17.0063 3.38901
lfingers 7.12502
lthumb 9.2293 33.167
rfemur -20.9117 -1.23944 8.85275
rtibia 38.2535
rfoot -11.1141 -19.2059
rtoes -2.33737
lfemur -0.465173 -1.19703 -19.8451
ltibia 41.6125
lfoot 10.3053 -4.50207
ltoes -19.7768
724
root -0.136527 18.0072 -5.29686 2.10283 4.35671 8.24303
lowerback 8.81019 -0.387401 2.95637
upperback 1.52195 0.0277862 6.75457
thorax -3.36822 0.0178074 5.398
lowerneck -24.2072 1.18755 6.40658
upperneck 25.6847 5.81877 -21.201
head 13.808 0.378399 -8.71579
rclavicle 3.18055e-015 3.49861e-014
rhumerus -27.0375 -28.3324 -23.671
rradius 32.3604
rwrist -3.37954
rhand -20.5009 -4.6193
rfingers 7.12502
rthumb 5.85621 -34.5184
lclavicle 3.18055e-015 3.49861e-014
lhumerus -28.7561 28.7258 18.378
lradius 37.4059
lwrist 2.319
lhand -16.9457 3.26463
lfingers 7.12502
lthumb 9.28774 33.04
rfemur -20.7157 -1.18546 8.75211
rtibia 38.2915
rfoot -11.3325 -19.3436
rtoes -2.41552
lfemur -0.557346 -1.03595 -19.8754
ltibia 41.7471
lfoot 11.1245 -4.79632
ltoes -19.4113
725
root -0.156089 18.0142 -5.22477 2.1775 4.33823 8.41448
lowerback 8.82996 -0.389321 3.01744
upperback 1.47027 0.0383572 6.80204
thorax -3.43416 0.023188 5.41417
lowerneck -24.1956 1.17431 6.39749
upperneck 25.6667 5.83919 -21.3272
head 13.8106 0.372225 -8.76613
rclavicle 8.74653e-015 8.90555e-014
rhumerus -27.0947 -28.2516 -23.7621
rradius 32.313
rwrist -3.35953
rhand -20.4425 -4.63368
rfingers 7.12502
rthumb 5.9126 -34.5312
lclavicle 8.74653e-015 8.90555e-014
lhumerus -28.7366 28.6527 18.3973
lradius 37.3777
lwrist 2.28173
lhand -16.8712 3.13582
lfingers 7.12502
lthumb 9.35963 32.908
rfemur -20.5361 -1.12561 8.65937
rtibia 38.3248
rfoot -11.5481 -19.4658
rtoes -2.4823
lfemur -0.645281 -0.870339 -19.8947
ltibia 41.8516
lfoot 11.9498 -5.09563
ltoes -19.1705
726
root -0.175757 18.0207 -5.1543 2.26171 4.31273 8.56539
lowerback 8.85095 -0.39227 3.08212
upperback 1.42502 0.0476602 6.85081
thorax -3.49399 0.0278115 5.42978
lowerneck -24.1707 1.17125 6.40971
upperneck 25.594 5.85979 -21.4647
head 13.7884 0.369089 -8.81894
rclavicle 2.78299e-015 9.54166e-015
rhumerus -27.1296 -28.217 -23.8591
rradius 32.2501
rwrist -3.3005
rhand -20.3976 -4.64063
rfingers 7.12502
rthumb 5.956 -34.5369
lclavicle 2.78299e-015 9.54166e-015
lhumerus -28.7152 28.5984 18.4024
lradius 37.3532
lwrist 2.25827
lhand -16.811 3.06937
lfingers 7.12502
lthumb 9.41766 32.839
rfemur -20.3769 -1.06244 8.58958
rtibia 38.3565
rfoot -11.7556 -19.5795
rtoes -2.55276
lfemur -0.734907 -0.714772 -19.8897
ltibia 41.9308
lfoot 12.78 -5.40835
ltoes -19.0644
